<svg width="193" height="44" viewBox="0 0 193 44" fill="none" xmlns="http://www.w3.org/2000/svg">
<path d="M8.45313 25.6563V43H0.132813V3H8.21875V18.293H8.57031C9.2474 16.5221 10.3411 15.1354 11.8516 14.1328C13.362 13.1172 15.2565 12.6094 17.5352 12.6094C19.6185 12.6094 21.4349 13.0651 22.9844 13.9766C24.5469 14.875 25.7578 16.1706 26.6172 17.8633C27.4896 19.543 27.9193 21.5547 27.9063 23.8984V43H19.5859V25.3828C19.599 23.5339 19.1302 22.0951 18.1797 21.0664C17.2422 20.0378 15.9271 19.5234 14.2344 19.5234C13.1016 19.5234 12.099 19.7643 11.2266 20.2461C10.3672 20.7279 9.6901 21.431 9.19531 22.3555C8.71354 23.2669 8.46615 24.3672 8.45313 25.6563ZM43.0088 43.5664C41.0947 43.5664 39.389 43.2344 37.8916 42.5703C36.3942 41.8932 35.2093 40.8971 34.3369 39.582C33.4775 38.2539 33.0479 36.6003 33.0479 34.6211C33.0479 32.9544 33.3538 31.5547 33.9658 30.4219C34.5778 29.2891 35.4111 28.3776 36.4658 27.6875C37.5205 26.9974 38.7184 26.4766 40.0596 26.125C41.4137 25.7734 42.833 25.526 44.3174 25.3828C46.0622 25.2005 47.4684 25.0312 48.5361 24.875C49.6038 24.7057 50.3786 24.4583 50.8604 24.1328C51.3421 23.8073 51.583 23.3255 51.583 22.6875V22.5703C51.583 21.3333 51.1924 20.3763 50.4111 19.6992C49.6429 19.0221 48.5492 18.6836 47.1299 18.6836C45.6325 18.6836 44.4411 19.0156 43.5557 19.6797C42.6702 20.3307 42.0843 21.151 41.7979 22.1406L34.1025 21.5156C34.4932 19.6927 35.2614 18.1172 36.4072 16.7891C37.5531 15.4479 39.0309 14.4193 40.8408 13.7031C42.6637 12.974 44.7731 12.6094 47.1689 12.6094C48.8356 12.6094 50.4307 12.8047 51.9541 13.1953C53.4906 13.5859 54.8512 14.1914 56.0361 15.0117C57.234 15.832 58.1781 16.8867 58.8682 18.1758C59.5583 19.4518 59.9033 20.9818 59.9033 22.7656V43H52.0127V38.8398H51.7783C51.2965 39.7773 50.652 40.6042 49.8447 41.3203C49.0374 42.0234 48.0674 42.5768 46.9346 42.9805C45.8018 43.3711 44.4932 43.5664 43.0088 43.5664ZM45.3916 37.8242C46.6156 37.8242 47.6963 37.5833 48.6338 37.1016C49.5713 36.6068 50.307 35.9427 50.8408 35.1094C51.3747 34.276 51.6416 33.332 51.6416 32.2773V29.0938C51.3812 29.263 51.0231 29.4193 50.5674 29.5625C50.1247 29.6927 49.6234 29.8164 49.0635 29.9336C48.5036 30.0378 47.9437 30.1354 47.3838 30.2266C46.8239 30.3047 46.3161 30.3763 45.8604 30.4414C44.8838 30.5846 44.0309 30.8125 43.3018 31.125C42.5726 31.4375 42.0062 31.8607 41.6025 32.3945C41.1989 32.9154 40.9971 33.5664 40.9971 34.3477C40.9971 35.4805 41.4072 36.3464 42.2275 36.9453C43.0609 37.5312 44.1156 37.8242 45.3916 37.8242ZM77.4131 43.4883C75.1344 43.4883 73.0706 42.9023 71.2217 41.7305C69.3857 40.5456 67.9274 38.8073 66.8467 36.5156C65.779 34.2109 65.2451 31.3854 65.2451 28.0391C65.2451 24.6016 65.7985 21.7435 66.9053 19.4648C68.012 17.1732 69.4834 15.4609 71.3193 14.3281C73.1683 13.1823 75.193 12.6094 77.3936 12.6094C79.0732 12.6094 80.473 12.8958 81.5928 13.4688C82.7256 14.0286 83.637 14.7318 84.3271 15.5781C85.0303 16.4115 85.5641 17.2318 85.9287 18.0391H86.1826V3H94.4834V43H86.2803V38.1953H85.9287C85.5381 39.0286 84.9847 39.8555 84.2686 40.6758C83.5654 41.4831 82.6475 42.1536 81.5146 42.6875C80.3949 43.2214 79.0277 43.4883 77.4131 43.4883ZM80.0498 36.8672C81.391 36.8672 82.5238 36.5026 83.4482 35.7734C84.3857 35.0312 85.1019 33.9961 85.5967 32.668C86.1045 31.3398 86.3584 29.7839 86.3584 28C86.3584 26.2161 86.111 24.6667 85.6162 23.3516C85.1214 22.0365 84.4053 21.0208 83.4678 20.3047C82.5303 19.5885 81.391 19.2305 80.0498 19.2305C78.6826 19.2305 77.5303 19.6016 76.5928 20.3437C75.6553 21.0859 74.9456 22.1146 74.4639 23.4297C73.9821 24.7448 73.7412 26.2682 73.7412 28C73.7412 29.7448 73.9821 31.2878 74.4639 32.6289C74.9587 33.957 75.6683 34.9987 76.5928 35.7539C77.5303 36.4961 78.6826 36.8672 80.0498 36.8672ZM111.109 3L104.469 43H100.816L107.457 3H111.109ZM115.104 43L121.744 3H134.654C137.493 3 139.778 3.50781 141.51 4.52344C143.255 5.53906 144.459 6.95182 145.123 8.76172C145.8 10.5586 145.95 12.6289 145.572 14.9727C145.182 17.2904 144.348 19.3411 143.072 21.125C141.809 22.9089 140.143 24.3086 138.072 25.3242C136.002 26.3268 133.561 26.8281 130.748 26.8281H119.771L120.338 23.4883H131.217C133.313 23.4883 135.11 23.1432 136.607 22.4531C138.105 21.763 139.303 20.7799 140.201 19.5039C141.1 18.2279 141.692 16.7174 141.979 14.9727C142.265 13.2148 142.167 11.6849 141.686 10.3828C141.217 9.08073 140.344 8.07161 139.068 7.35547C137.805 6.63932 136.119 6.28125 134.01 6.28125H124.85L118.756 43H115.104ZM135.729 24.9531L142.584 43H138.385L131.646 24.9531H135.729ZM150.309 43V13H158.629V43H150.309ZM154.488 9.13281C153.251 9.13281 152.19 8.72265 151.305 7.90234C150.432 7.06901 149.996 6.07292 149.996 4.91406C149.996 3.76823 150.432 2.78516 151.305 1.96484C152.19 1.13151 153.251 0.714842 154.488 0.714842C155.725 0.714842 156.78 1.13151 157.652 1.96484C158.538 2.78516 158.98 3.76823 158.98 4.91406C158.98 6.07292 158.538 7.06901 157.652 7.90234C156.78 8.72265 155.725 9.13281 154.488 9.13281ZM173.614 25.6563V43H165.294V13H173.224V18.293H173.575C174.239 16.5482 175.353 15.168 176.915 14.1523C178.478 13.1237 180.372 12.6094 182.599 12.6094C184.682 12.6094 186.498 13.0651 188.048 13.9766C189.597 14.888 190.802 16.1901 191.661 17.8828C192.521 19.5625 192.95 21.5677 192.95 23.8984V43H184.63V25.3828C184.643 23.5469 184.174 22.1146 183.224 21.0859C182.273 20.0443 180.965 19.5234 179.298 19.5234C178.178 19.5234 177.188 19.7643 176.329 20.2461C175.483 20.7279 174.819 21.431 174.337 22.3555C173.868 23.2669 173.627 24.3672 173.614 25.6563Z" fill="#21A9B5"/>
</svg>
